<?xml version="1.0" encoding="utf-8"?>
<!-- Generator: Adobe Illustrator 27.5.0, SVG Export Plug-In . SVG Version: 6.00 Build 0)  -->
<svg version="1.1" id="图层_1" xmlns="http://www.w3.org/2000/svg" xmlns:xlink="http://www.w3.org/1999/xlink" x="0px" y="0px"
	 viewBox="0 0 1920 1080" style="enable-background:new 0 0 1920 1080;" xml:space="preserve">
<style type="text/css">
	.st0{fill:url(#SVGID_1_);}
	.st1{fill:none;stroke:#000000;stroke-miterlimit:10;}
</style>
<g>
	<linearGradient id="SVGID_1_" gradientUnits="userSpaceOnUse" x1="118.9147" y1="-301.0298" x2="1618.9147" y2="1198.9702">
		<stop  offset="0.276" style="stop-color:#584A97"/>
		<stop  offset="0.318" style="stop-color:#574F9A"/>
		<stop  offset="0.367" style="stop-color:#565DA1"/>
		<stop  offset="0.3982" style="stop-color:#546AA8"/>
		<stop  offset="0.4389" style="stop-color:#527CB1"/>
		<stop  offset="0.5202" style="stop-color:#4DABCA"/>
		<stop  offset="0.5478" style="stop-color:#4BBCD3"/>
		<stop  offset="0.5951" style="stop-color:#48D7E1"/>
		<stop  offset="0.6504" style="stop-color:#45F1EF"/>
		<stop  offset="0.6837" style="stop-color:#44FAF4"/>
	</linearGradient>
	<rect x="0.28" y="0.33" class="st0" width="1920" height="1080"/>
</g>
<path class="st1" d="M506.94,113.83h-0.64l0.04-0.07C506.54,113.78,506.74,113.8,506.94,113.83z"/>
<g>
	<path class="st1" d="M506.3,113.83c-2.83,0-5.67,0-8.52,0"/>
	<path class="st1" d="M506.5,113.5c604.09,0.17,909.53,0.33,916.17,0.33"/>
	<line class="st1" x1="506.5" y1="113.5" x2="506.34" y2="113.76"/>
	<path class="st1" d="M1484.48,231.46l0.02,0.04l-459.09,713.03c-12.92,22.58-37.25,37.8-65.13,37.8
		c-26.64,0-50.04-13.89-63.34-34.83h-0.44l-460-716l0.21-0.35c-8.47-12.14-13.43-26.9-13.43-42.82c0-41.42,33.58-75,75-75
		c2.72,0,5.41,0.15,8.06,0.43l-0.04,0.07h0.64c603.7,0.06,908.9,0,915.73,0c0.07,0,0.11,0,0.11,0c13.22,0,25.61,4.49,25.61,4.49
		c2.89,1.08,15.06,5.84,26.67,17.63c2.93,2.98,10.03,10.66,15.51,22.69c0,0,7.21,14.98,7.21,30.19
		C1497.78,204.67,1492.87,219.36,1484.48,231.46z"/>
	<line class="st1" x1="1422.67" y1="113.83" x2="1422.5" y2="113.5"/>
</g>
</svg>
